<svg width="121" height="32" viewBox="0 0 121 32" fill="none" xmlns="http://www.w3.org/2000/svg">
<path d="M36.262 10.7612C37.6781 9.54073 39.2239 8.57237 42.557 8.23332V13.9571L40.4347 14.2961C37.3511 14.8436 36.4283 15.3001 36.4283 18.0816V30.4385H30.0051V8.44376H36.2625V10.7612H36.262ZM58.2149 22.1554C58.1662 23.3377 58.1241 24.4281 56.7511 25.2663C55.7914 25.8163 54.9143 25.8163 54.5416 25.8163C53.2477 25.8163 52.3711 25.2262 51.9959 24.7229C51.497 24.0448 51.497 23.0815 51.497 22.1177V8.49053H45.0373V22.2774C45.0373 25.8555 45.2451 27.1573 46.3671 28.7595C47.8694 30.8615 50.4957 31.0714 51.9133 31.0714C53.3349 31.0714 54.7474 30.7278 56.0418 30.0654C57.2074 29.4752 57.5831 29.0538 58.2144 28.3386V30.439H64.6356V8.49053H58.2144V22.1554H58.2149ZM14.113 25.0569C16.574 25.0106 19.7838 24.9293 19.7838 21.5271C19.7838 17.9474 16.8624 17.9073 15.3632 17.8651H8.98814V25.0569H14.113ZM25.625 17.6989C26.6669 18.8309 27.2525 20.4657 27.2525 22.1569C27.2525 24.4687 26.0428 27.7032 22.3721 29.3431C20.162 30.313 17.7817 30.438 14.404 30.438H1.98031V12.4443L14.5302 12.4783C16.1978 12.4392 18.9092 12.3579 18.9092 9.28555C18.9092 6.4252 16.4497 6.30066 15.0306 6.30066L5.47865 6.27473L-6.10352e-05 0.750244H13.3651C16.4497 0.750244 19.2454 0.875802 21.0402 1.46648C24.6648 2.64071 26.1254 5.5463 26.1254 8.36345C26.1254 9.95654 25.7067 10.929 25.5835 11.2162C24.249 14.2463 21.4103 14.8355 19.8305 15.1709C21.6232 15.4658 23.9965 15.8486 25.625 17.6989ZM75.0333 8.52967H68.5735V30.4395H74.9947V18.5859C74.9947 15.8485 74.9947 13.1148 78.3739 13.1148C79.6237 13.1148 80.7482 13.6251 81.2492 14.7948C81.4971 15.387 81.5407 16.0986 81.5407 18.0832V30.4401H87.9193V15.4282C87.9193 12.0229 87.3378 10.0445 85.0436 8.82297C83.9155 8.19671 82.4553 7.94814 81.1645 7.94814C79.6237 7.94814 78.2026 8.32075 77.2043 8.74266C76.0807 9.28606 75.6589 9.79184 75.0333 10.4679V8.52967ZM96.8097 16.7463C97.016 15.8216 97.2269 14.809 98.1066 13.8422C98.7277 13.1702 99.8142 12.4133 101.355 12.4133C102.485 12.4133 103.694 12.8337 104.489 13.6378C105.401 14.6006 105.566 15.8216 105.691 16.7463H96.8097ZM106.494 23.0531C106.154 24.2131 104.957 26.2459 101.454 26.2459C97.992 26.2459 96.7291 23.5156 96.7696 20.7808H112.326C112.237 18.3002 112.075 14.0104 109.232 10.9402C106.447 7.91053 102.689 7.79259 101.393 7.79259C92.8089 7.79259 90.2221 14.6001 90.2221 19.8974C90.2221 27.0897 94.7639 31.2493 101.227 31.2493C104.735 31.2493 107.563 29.9038 109.446 28.1445C110.569 27.0897 111.781 25.3258 112.036 23.0525H106.494V23.0531ZM121 0.754312H114.577V30.439H121V0.754312Z" fill="#333333"/>
</svg>
